<svg id="Logo" xmlns="http://www.w3.org/2000/svg" width="60" height="120" viewBox="118.357 11.214 214.286 428.571">
  <defs>
    <style>
      .cls-1 {
        fill: #274e13;
      }

      .cls-1, .cls-2 {
        fill-rule: evenodd;
      }

      .cls-2 {
        fill: #560077;
      }
    </style>
  </defs>
  <path id="Preenchimento_de_Cor_3" data-name="Preenchimento de Cor 3" class="cls-1" d="M177,24c4.123,1.775,15.824,3.823,16,4,3.467,2.252,6.049,2.754,7,8l-7,1c-0.827-.2-1.875-1.3-5-2-0.564,6.381-2.049,6.352-9,6l-2-1q-0.5-7-1-14Zm10,24c4.093,1.028,3.153,1.807,7,3,1.438-3.663-.61-1.521,3-3,2.9,3.589,4.313,1.107,7,4q0.5,3,1,6l-8,2c-1.425-2.843-.2-1.544-3-3q-0.5,4-1,8c-3.021,1.329-5.037,1.926-10,2-2.34-4.516-4.083-11.106-5-17l1-1C182.735,49.551,183.967,50.012,187,48Zm27,33-8,3c-1.417-1.457-.764-1.005-3-2,0.074,6.322-.564,7.439-4,10-2.088,1.4-3.475,1.668-7,2a51.517,51.517,0,0,1-6-18c7.228-1.208,8.956-2.72,15-1,0.906-4.347-.7-2.445,3-4,3.255,3.519,2.4,2.343,7,1l2,4Q213.5,78.5,214,81Zm-3,18V95l1-1c2.036,0.721,9,2,9,2l4,9c-5.258.69-4.992,1.377-7,5-2.639-1.593-2.454-2.7-5-2h-1q0.5,3.5,1,7c-4.141,2.606-5.614,3.965-13,4v-2q-2.5-7.5-5-15C203.69,100.464,202.643,98.293,211,99Zm11,21c3.106,1.414,2.912,2.556,6,4,0.9-1.08,1.954-4.084,3-2,2.713,2.374,3.535,4.175,4,9l-10,4c-1.425-2.843-.2-1.544-3-3,0.276,7.014-.189,9.016-5,11-2.277,1.532-4.016,1.814-8,2q-2.5-8-5-16c6.249-2.572,11.762-3.016,16-4Q221,122.5,222,120Zm22,39c-5.576.621-5.918,2.322-10,4-1.49-2.59-1.137-2.606-4-4q-0.5,4-1,8c-4.206,2.029-7.023,3.025-14,3l-3-16c4.562-1.405,8.024-2.2,11-5,3.315,1.241,3.463,2.68,6,2,1.758-2.739-.468-2.974,4-5,3.384,4.9,6.088,1.492,9,6C243.4,154.088,243.668,155.475,244,159Zm-26,20c7.408,0.019,9.642-1.746,15-3,1.425,2.843.2,1.543,3,3v-1c2.241-2.663.816-2.752,5-4q1,2.5,2,5l6-2q0.5,6,1,12l-1,1-9,1q-1-2-2-4l-1,1c-1.976,3.2-1.5,6.053-5,8-2.266,1.882-5.785,2.816-8,2-5.907-1.91-5.555-6.114-5-14Q218.5,181.5,218,179Zm36,43H243q-1-2-2-4l-2,1c-2.793,4.919-1.047,6.749-9,7l-8-1q-0.5-3.5-1-7,0.5-6,1-12h14l2,3c3.428-1.629,3.442-3.4,7-5,0.819,3.676,1.179,5.253,4,7l4-2Q253.5,215.5,254,222Zm-34,12,15,1c1.76,3.036,1.006,2.881,5,4,1.631-3.117.229-1.9,4-3l3,7,5-1v11l-4,1h-8q-1-3-2-6l-1,1c-1.913,2.282-2.287,4.347-5,6-5.964,3.081-11.751-2.1-15-5Zm27,40c0.422,6.406.611,10.218-4,12l-8-3q-1-2.5-2-5l-2,1c-1.572,1.88-1.846,3.535-4,5-6.648,3.226-12.7-3.471-16-7q2-8,4-16l15,4,3,5c2.343-1.716,2.751-3.975,5-3C242.49,270.213,239.443,273.068,247,274Zm-12,23v6l1,1,6,1q0.5,3.5,1,7c-2.2,2.3-1.3,2.726-5,4-2.2-2.078-4.368-2.086-9-2q-0.5-3.5-1-7h-3c-1.551,5.831-3.3,6.4-11,6-4.027-3.322-6.994-3.258-8-10,2.365-4.109,1.2-12.137,5-15,3.925,3.522,8.858,3.275,14,6,2.18,3.259.464,3.586,5,5C231.888,297.214,231.357,297.54,235,297Zm-31,20,16,6,3,6c2.477-1.562,2.349-2.11,6-3,3.293,7.882,8.625,6.6,9,17-1.408,1.5-1.044,1.769-3,3-2.651-2.111-6.708-2.223-10-4-2.18-3.26-.464-3.586-5-5-1.511,4.9-2.482,5.179-9,5-4.275-2.944-7.491-4.522-11-8Zm-5,28c8.951,2.128,15.04,9.544,22,13,1.631-3.117.229-1.9,4-3,3.768,7.278,9.705,7.606,10,18l-1,2h-3l-9-4-3-6-2,1c-2.874,4-1.741,4.919-9,5l-4-2c-4.985-1.654-7.326-3.893-8-10C197.954,355.937,198.235,349.223,199,345Zm-4,29,18,7c2.135,2.9.959,3.549,5,5,1.736-1.672.894-1.193,4-2,3.545,5.865,10.051,7.321,11,15l1,3-2,2a59.75,59.75,0,0,0-13-4l-2-6-3,1c-1.017,5.309-1.771,5.129-8,5-4.912-2.787-9.568-2.581-12-8C192.287,388.617,193.6,378.125,195,374Zm-2,29c10.516,1.286,17.069,9.188,26,11,1.81-2.336.316-1.247,4-2,2.411,7.546,5.114,6.6,11,9v10h-2c-3.656-3.137-7.186-1.633-11-3l-3-6-2,1c-2.982,5.375-2.073,6.377-11,6-3.612-2.429-7.7-3.192-10-7Q194,412.5,193,403Z"/>
  <path id="Preenchimento_de_Cor_2" data-name="Preenchimento de Cor 2" class="cls-2" d="M261,239h3c11.975,17.378,21.726,37.554,26,63,3.188,18.98-10.881,35.2-14,50-2.889,13.7,5.476,26.1,8,36-6.28,3.789-12,5.153-23,5-6.186-10.885-16.049-23.694-19-36-5.012-20.9,9.931-32.356,16-43,4.876-8.552,7.336-19.536,10-30h2v1c9.772,12.361-1.2,36.533-5,46h2v-1c7.393-5.722,19.567-48.184,1-51-2.825,4.27-4.856,10.387-8,15q-2.5-11.5-5-23c2.081-1.377,2.706-1.7,4-4-2.474-3.552-3.05-7.749-3-14,2.862-1.553,3.331-.535,5-3C258.131,246.45,259.081,242.56,261,239Z"/>
  <path id="Preenchimento_de_Cor_1" data-name="Preenchimento de Cor 1" class="cls-2" d="M192,118l3,1v11c3.7,0.7,2.193-.287,4,2,2.613,5.12-.914,10.164-2,15,3.831,1.64,3.718,1.763,4,7-2.474,4.958-1.785,13.721-6,17-0.666-5.773-2.8-10.681-7-13l-3-1c-1.9,3.512-3.228,4-4,9-7.031,13.278,3.626,35.015,8,42h2v-3c-6.862-9.585-8.542-27.916-5-42h3c10.578,37.921,40.381,51.984,16,92-2.962,4.861-3.06,13.111-8,16-8.209,4.82-21.122-.669-22-8,16.54-24.41-4.312-54.018-8-77C163.4,163.567,183.265,130.318,192,118Z"/>
</svg>
