<?xml version="1.0" encoding="utf-8"?>
<!-- Generator: Adobe Illustrator 23.0.6, SVG Export Plug-In . SVG Version: 6.00 Build 0)  -->
<svg version="1.1" id="Logo" xmlns="http://www.w3.org/2000/svg" xmlns:xlink="http://www.w3.org/1999/xlink" x="0px" y="0px"
	 viewBox="0 0 60 120" style="enable-background:new 0 0 60 120;" xml:space="preserve">
<style type="text/css">
	.st0{fill-rule:evenodd;clip-rule:evenodd;fill:#FFFFFF;}
</style>
<path id="Preenchimento_de_Cor_3" class="st0" d="M16.4,3.6c1.2,0.5,4.4,1.1,4.5,1.1c1,0.6,1.7,0.8,2,2.2l-2,0.3
	c-0.2-0.1-0.5-0.4-1.4-0.6c-0.2,1.8-0.6,1.8-2.5,1.7l-0.6-0.3c-0.1-1.3-0.2-2.6-0.3-3.9L16.4,3.6z M19.2,10.3c1.1,0.3,0.9,0.5,2,0.8
	c0.4-1-0.2-0.4,0.8-0.8c0.8,1,1.2,0.3,2,1.1c0.1,0.6,0.2,1.1,0.3,1.7L22,13.7c-0.4-0.8-0.1-0.4-0.8-0.8c-0.1,0.7-0.2,1.5-0.3,2.2
	c-0.8,0.4-1.4,0.5-2.8,0.6c-0.7-1.3-1.1-3.1-1.4-4.8l0.3-0.3C18,10.7,18.4,10.9,19.2,10.3z M26.8,19.5l-2.2,0.8
	c-0.4-0.4-0.2-0.3-0.8-0.6c0,1.8-0.2,2.1-1.1,2.8c-0.6,0.4-1,0.5-2,0.6c-0.9-1.6-1.4-3.3-1.7-5c2-0.3,2.5-0.8,4.2-0.3
	c0.3-1.2-0.2-0.7,0.8-1.1c0.9,1,0.7,0.7,2,0.3l0.6,1.1C26.6,18.6,26.7,19.1,26.8,19.5z M25.9,24.6v-1.1l0.3-0.3
	c0.6,0.2,2.5,0.6,2.5,0.6l1.1,2.5c-1.5,0.2-1.4,0.4-2,1.4c-0.7-0.4-0.7-0.8-1.4-0.6h-0.3c0.1,0.7,0.2,1.3,0.3,2
	c-1.2,0.7-1.6,1.1-3.6,1.1v-0.6c-0.5-1.4-0.9-2.8-1.4-4.2C23.9,25,23.6,24.4,25.9,24.6z M29,30.5c0.9,0.4,0.8,0.7,1.7,1.1
	c0.3-0.3,0.5-1.1,0.8-0.6c0.8,0.7,1,1.2,1.1,2.5l-2.8,1.1c-0.4-0.8-0.1-0.4-0.8-0.8c0.1,2-0.1,2.5-1.4,3.1c-0.6,0.4-1.1,0.5-2.2,0.6
	c-0.5-1.5-0.9-3-1.4-4.5c1.7-0.7,3.3-0.8,4.5-1.1C28.6,31.4,28.8,30.9,29,30.5z M35.2,41.4c-1.6,0.2-1.7,0.7-2.8,1.1
	c-0.4-0.7-0.3-0.7-1.1-1.1c-0.1,0.7-0.2,1.5-0.3,2.2c-1.2,0.6-2,0.8-3.9,0.8L26.2,40c1.3-0.4,2.2-0.6,3.1-1.4c0.9,0.3,1,0.8,1.7,0.6
	c0.5-0.8-0.1-0.8,1.1-1.4c0.9,1.4,1.7,0.4,2.5,1.7C35,40,35.1,40.4,35.2,41.4z M27.9,47c2.1,0,2.7-0.5,4.2-0.8
	c0.4,0.8,0.1,0.4,0.8,0.8v-0.3c0.6-0.7,0.2-0.8,1.4-1.1c0.2,0.5,0.4,0.9,0.6,1.4l1.7-0.6c0.1,1.1,0.2,2.2,0.3,3.4l-0.3,0.3l-2.5,0.3
	c-0.2-0.4-0.4-0.7-0.6-1.1l-0.3,0.3c-0.6,0.9-0.4,1.7-1.4,2.2c-0.6,0.5-1.6,0.8-2.2,0.6c-1.7-0.5-1.6-1.7-1.4-3.9
	C28.1,47.9,28,47.4,27.9,47z M38,59h-3.1c-0.2-0.4-0.4-0.7-0.6-1.1l-0.6,0.3c-0.8,1.4-0.3,1.9-2.5,2L29,59.9c-0.1-0.7-0.2-1.3-0.3-2
	c0.1-1.1,0.2-2.2,0.3-3.4h3.9l0.6,0.8c1-0.5,1-1,2-1.4c0.2,1,0.3,1.5,1.1,2l1.1-0.6C37.8,56.6,37.9,57.8,38,59z M28.5,62.4l4.2,0.3
	c0.5,0.9,0.3,0.8,1.4,1.1c0.5-0.9,0.1-0.5,1.1-0.8l0.8,2l1.4-0.3v3.1L36.3,68h-2.2c-0.2-0.6-0.4-1.1-0.6-1.7l-0.3,0.3
	c-0.5,0.6-0.6,1.2-1.4,1.7c-1.7,0.9-3.3-0.6-4.2-1.4L28.5,62.4z M36,73.6c0.1,1.8,0.2,2.9-1.1,3.4l-2.2-0.8
	c-0.2-0.5-0.4-0.9-0.6-1.4L31.5,75c-0.4,0.5-0.5,1-1.1,1.4c-1.9,0.9-3.6-1-4.5-2c0.4-1.5,0.7-3,1.1-4.5l4.2,1.1l0.8,1.4
	c0.7-0.5,0.8-1.1,1.4-0.8C34.8,72.5,33.9,73.3,36,73.6z M32.7,80v1.7l0.3,0.3l1.7,0.3c0.1,0.7,0.2,1.3,0.3,2
	c-0.6,0.6-0.4,0.8-1.4,1.1c-0.6-0.6-1.2-0.6-2.5-0.6c-0.1-0.7-0.2-1.3-0.3-2h-0.8c-0.4,1.6-0.9,1.8-3.1,1.7c-1.1-0.9-2-0.9-2.2-2.8
	c0.7-1.2,0.3-3.4,1.4-4.2c1.1,1,2.5,0.9,3.9,1.7c0.6,0.9,0.1,1,1.4,1.4C31.8,80.1,31.6,80.2,32.7,80z M24,85.6l4.5,1.7l0.8,1.7
	c0.7-0.4,0.7-0.6,1.7-0.8c0.9,2.2,2.4,1.8,2.5,4.8c-0.4,0.4-0.3,0.5-0.8,0.8c-0.7-0.6-1.9-0.6-2.8-1.1c-0.6-0.9-0.1-1-1.4-1.4
	c-0.4,1.4-0.7,1.5-2.5,1.4c-1.2-0.8-2.1-1.3-3.1-2.2L24,85.6z M22.6,93.5c2.5,0.6,4.2,2.7,6.2,3.6c0.5-0.9,0.1-0.5,1.1-0.8
	c1.1,2,2.7,2.1,2.8,5l-0.3,0.6h-0.8l-2.5-1.1l-0.8-1.7l-0.6,0.3c-0.8,1.1-0.5,1.4-2.5,1.4l-1.1-0.6c-1.4-0.5-2.1-1.1-2.2-2.8
	C22.3,96.5,22.4,94.6,22.6,93.5z M21.5,101.6l5,2c0.6,0.8,0.3,1,1.4,1.4c0.5-0.5,0.3-0.3,1.1-0.6c1,1.6,2.8,2,3.1,4.2l0.3,0.8
	l-0.6,0.6c-1.2-0.5-2.4-0.9-3.6-1.1l-0.6-1.7l-0.8,0.3c-0.3,1.5-0.5,1.4-2.2,1.4c-1.4-0.8-2.7-0.7-3.4-2.2
	C20.7,105.7,21.1,102.7,21.5,101.6z M20.9,109.7c2.9,0.4,4.8,2.6,7.3,3.1c0.5-0.7,0.1-0.3,1.1-0.6c0.7,2.1,1.4,1.8,3.1,2.5v2.8h-0.6
	c-1-0.9-2-0.5-3.1-0.8l-0.8-1.7l-0.6,0.3c-0.8,1.5-0.6,1.8-3.1,1.7c-1-0.7-2.2-0.9-2.8-2C21.3,113.2,21.1,111.5,20.9,109.7z"/>
<path id="Preenchimento_de_Cor_2" class="st0" d="M39.9,63.8h0.8c3.4,4.9,6.1,10.5,7.3,17.6c0.9,5.3-3,9.9-3.9,14
	c-0.8,3.8,1.5,7.3,2.2,10.1c-1.8,1.1-3.4,1.4-6.4,1.4c-1.7-3-4.5-6.6-5.3-10.1c-1.4-5.9,2.8-9.1,4.5-12c1.4-2.4,2.1-5.5,2.8-8.4h0.6
	v0.3c2.7,3.5-0.3,10.2-1.4,12.9h0.6v-0.3c2.1-1.6,5.5-13.5,0.3-14.3c-0.8,1.2-1.4,2.9-2.2,4.2c-0.5-2.1-0.9-4.3-1.4-6.4
	c0.6-0.4,0.8-0.5,1.1-1.1c-0.7-1-0.9-2.2-0.8-3.9c0.8-0.4,0.9-0.1,1.4-0.8C39.1,65.9,39.4,64.8,39.9,63.8z"/>
<path id="Preenchimento_de_Cor_1" class="st0" d="M20.6,29.9l0.8,0.3v3.1c1,0.2,0.6-0.1,1.1,0.6c0.7,1.4-0.3,2.8-0.6,4.2
	c1.1,0.5,1,0.5,1.1,2c-0.7,1.4-0.5,3.8-1.7,4.8c-0.2-1.6-0.8-3-2-3.6l-0.8-0.3c-0.5,1-0.9,1.1-1.1,2.5c-2,3.7,1,9.8,2.2,11.8h0.6
	v-0.8c-1.9-2.7-2.4-7.8-1.4-11.8h0.8c3,10.6,11.3,14.6,4.5,25.8c-0.8,1.4-0.9,3.7-2.2,4.5c-2.3,1.3-5.9-0.2-6.2-2.2
	c4.6-6.8-1.2-15.1-2.2-21.6C12.6,42.7,18.2,33.3,20.6,29.9z"/>
</svg>
