<?xml version="1.0" encoding="utf-8"?>
<!-- Generator: Adobe Illustrator 23.0.6, SVG Export Plug-In . SVG Version: 6.00 Build 0)  -->
<svg version="1.1" id="Camada_1" xmlns="http://www.w3.org/2000/svg" xmlns:xlink="http://www.w3.org/1999/xlink" x="0px" y="0px"
	 viewBox="0 0 78 81" style="enable-background:new 0 0 78 81;" xml:space="preserve">
<style type="text/css">
	.st0{fill:#8A48C7;}
</style>
<path class="st0" d="M48.3,47.2c4.6-3,7.6-8.2,7.6-14.1c0-9.3-7.6-16.9-16.9-16.9s-16.9,7.6-16.9,16.9c0,5.9,3,11,7.6,14.1
	C19.4,51,12,60.9,12,72.5h4.5C16.5,60.1,26.6,50,39,50s22.5,10.1,22.5,22.5H66C66,60.9,58.6,51,48.3,47.2z M39,45.5
	c-6.8,0-12.4-5.6-12.4-12.4S32.2,20.7,39,20.7s12.4,5.6,12.4,12.4S45.8,45.5,39,45.5z"/>
</svg>
